<?xml version="1.0" encoding="UTF-8"?>
<svg id="Capa_1" data-name="Capa 1" xmlns="http://www.w3.org/2000/svg" viewBox="0 0 180 105">
  <defs>
    <style>
      .cls-1 {
        fill: #d3daea;
      }
    </style>
  </defs>
  <path class="cls-1" d="M154.4,48.1c-6.4-1.8-12.8-2.6-19.4-2-2.5,.2-3-.4-2.7-2.8,.9-6.5-.3-12.8-1.8-19-.7-2.9-2.1-4-5.2-3-6.2,1.9-12.2,4-17.4,7.9-2.2,1.7-2.9,1.1-3.9-1.1-2.4-5.5-6-10.2-10.1-14.4-3.7-3.8-4.1-3.8-7.8-.1-4.9,5-8.7,10.7-11.7,17.3-6-4.5-12.5-7.4-19.4-9.5-3.1-1-4.8-.3-5.7,3.2-1.6,6.3-2.4,12.6-1.8,19.1,.2,2.2-.4,2.8-2.6,2.6-6.5-.7-12.8,.2-19.1,1.7-2.9,.7-3.9,2-3.1,5.1,6.8,28.5,35.4,45.8,63.8,38.3,2.3-.6,4.3-.7,6.6,0,27.9,7.6,57.6-10.1,64.1-38.2,.7-3,0-4.3-2.8-5.1h0Zm-46.1-15c5-3.7,10.5-6.3,16.5-8,1.5-.4,2.3,0,2.7,1.5,1.5,6,2.1,12.1,1.3,18.3-.2,1.4-.7,2.2-2.2,2.5-6.2,1.5-11.8,4.1-17.6,8,.5-7-.1-13.2-1.8-19.2-.4-1.4-.1-2.2,1.1-3.1h0Zm-55.9-6.1c.5-2,1.4-2.4,3.2-1.8,5.8,1.8,11.2,4.3,16.1,7.9,1.2,.9,1.6,1.6,1.1,3.1-1.9,6-2.2,12.3-1.8,19.2-5.8-3.8-11.4-6.6-17.6-8-1.4-.3-2-1-2.2-2.5-.6-6-.3-12,1.2-17.9Zm-16.9,44.2c-4.1-5.1-7-10.7-8.7-17-.6-2.1-.3-2.9,1.9-3.4,15.1-3.5,28.9-.8,41.4,8.4,1.1,.8,1.8,1.7,2.1,3,2.2,9.7,6.9,18,14.2,25.3-17.1,5.8-38.7-1.2-50.9-16.3h0Zm56.4,13c-1.5,1.5-2.4,1.6-3.9,0-9.2-9.5-13.5-21-13.8-33.7,.2-13.3,4.6-24.5,13.6-33.8,1.7-1.7,2.5-1.6,4.2,0,18.2,17.8,18.1,49.9-.1,67.5Zm61.4-30.3c-7,26-35.3,41.1-59.7,33.6,7.3-7.5,12.1-15.8,14.3-25.7,.3-1.4,1.3-2.1,2.3-2.8,12.3-8.9,25.9-11.6,40.7-8.3,1.8,.4,3,.9,2.4,3.2h0Z"/>
</svg>
